<?xml version="1.0" encoding="utf-8"?>
<!-- Generator: Adobe Illustrator 24.0.1, SVG Export Plug-In . SVG Version: 6.00 Build 0)  -->
<svg version="1.1" id="Layer_1" xmlns="http://www.w3.org/2000/svg" xmlns:xlink="http://www.w3.org/1999/xlink" x="0px" y="0px"
	 viewBox="0 0 181.1 224.4" style="enable-background:new 0 0 181.1 224.4;" xml:space="preserve">
<style type="text/css">
	.st0{fill:#004D97;}
	.st1{fill-rule:evenodd;clip-rule:evenodd;fill:#004D97;}
</style>
<g>
	<path class="st0" d="M150.6,208.5h5.6v0.9c-0.2-0.1-0.3-0.1-0.5-0.1h-3.2v4.1h3.1c0.2,0,0.4,0,0.6-0.1v0.9c-0.1,0-0.3,0-0.6,0h-3.2
		v4.3h3.1c0.2,0,0.4,0,0.6-0.1v1h-5.6c0-0.2,0.1-0.3,0.1-0.5V209C150.6,208.8,150.6,208.6,150.6,208.5 M141.2,213.7h0.8
		c0.5,0,0.9-0.1,1.3-0.4c0.6-0.4,0.9-1,0.9-1.8c0-0.7-0.2-1.3-0.7-1.8c-0.4-0.3-0.9-0.5-1.5-0.5h-0.8V213.7z M141.2,214.3v4.5
		c0,0.2,0,0.4,0.1,0.5h-2c0-0.1,0.1-0.3,0.1-0.5V209c0-0.2,0-0.3-0.1-0.5h3.3c0.8,0,1.4,0.2,2,0.5c0.4,0.2,0.8,0.6,1,1
		c0.3,0.4,0.4,0.9,0.4,1.5c0,1.2-0.6,2-1.7,2.5c-0.3,0.1-0.7,0.2-1.2,0.3l3.6,4.7c0.1,0.2,0.3,0.3,0.4,0.4h-2.4
		c-0.1-0.2-0.1-0.3-0.2-0.5L141.2,214.3z M134.4,208.9v1.3c-1-0.7-2-1-3-1c-1.1,0-1.9,0.4-2.6,1.1c-0.4,0.4-0.7,0.9-0.8,1.5
		c-0.2,0.6-0.3,1.4-0.3,2.2c0,1.6,0.4,2.8,1.1,3.6c0.6,0.7,1.4,1,2.4,1c0.6,0,1.1-0.2,1.7-0.5v-4.2c0-0.2,0-0.4-0.1-0.5h1.9
		c0,0.2-0.1,0.3-0.1,0.5v4.2c0,0.2,0,0.5,0.1,0.7c-1,0.3-1.7,0.5-2.1,0.6c-0.4,0.1-1,0.1-1.6,0.1c-1.1,0-2-0.2-2.8-0.6
		c-0.9-0.5-1.5-1.2-1.9-2.1c-0.4-0.8-0.6-1.8-0.6-2.8c0-1.9,0.6-3.3,1.8-4.4c0.9-0.8,2.2-1.2,3.8-1.2
		C132.3,208.3,133.3,208.5,134.4,208.9z M116.2,208.5h5.6v0.9c-0.2-0.1-0.3-0.1-0.5-0.1h-3.2v4.1h3.1c0.2,0,0.4,0,0.6-0.1v0.9
		c-0.1,0-0.3,0-0.6,0h-3.2v4.3h3.1c0.2,0,0.4,0,0.6-0.1v1h-5.6c0-0.2,0.1-0.3,0.1-0.5V209C116.3,208.8,116.3,208.6,116.2,208.5z
		 M112.5,219.3H107c0-0.2,0.1-0.3,0.1-0.5V209c0-0.2,0-0.4-0.1-0.5h2c0,0.2-0.1,0.3-0.1,0.5v9.4h3.1c0.2,0,0.4,0,0.5-0.1V219.3z
		 M96.4,215.1h3.5l-1.8-4.9L96.4,215.1z M96.1,215.9l-1,2.9c0,0.1-0.1,0.3-0.1,0.5h-1c0.1-0.2,0.2-0.3,0.2-0.5l3.5-10
		c0-0.1,0.1-0.3,0.1-0.4h1.6c0,0.1,0,0.2,0.1,0.4l3.7,10c0.1,0.1,0.1,0.3,0.3,0.5h-2.1c0-0.1,0-0.3-0.1-0.5l-1-2.9H96.1z
		 M76.6,209.2c-1.2,0-2.1,0.4-2.6,1.3c-0.5,0.8-0.8,1.9-0.8,3.3c0,3.2,1.1,4.8,3.4,4.8c1.1,0,2-0.4,2.6-1.3c0.3-0.4,0.5-0.9,0.6-1.4
		c0.1-0.5,0.2-1.2,0.2-1.9C80,210.8,78.9,209.2,76.6,209.2z M76.6,208.3c1.6,0,2.9,0.4,3.8,1.3c1,1,1.5,2.4,1.5,4.2
		c0,1.8-0.5,3.2-1.5,4.2c-0.9,0.9-2.2,1.4-3.9,1.4c-1.7,0-3.1-0.5-4-1.5c-0.9-1-1.4-2.4-1.4-4.2c0-1.1,0.2-2.1,0.6-3
		C72.8,209.2,74.3,208.4,76.6,208.3z M60.9,208.5h7.9v1c-0.3,0-0.5-0.1-0.7-0.1h-2.3v9.4c0,0.2,0,0.4,0.1,0.5h-2
		c0-0.2,0.1-0.3,0.1-0.5v-9.4h-2.3c-0.2,0-0.5,0-0.7,0.1V208.5z M53,213.7h0.8c0.5,0,0.9-0.1,1.3-0.4c0.6-0.4,0.9-1,0.9-1.8
		c0-0.7-0.2-1.3-0.7-1.8c-0.4-0.3-0.9-0.5-1.5-0.5H53V213.7z M53,214.3v4.5c0,0.2,0,0.4,0.1,0.5h-2c0-0.1,0.1-0.3,0.1-0.5V209
		c0-0.2,0-0.3-0.1-0.5h3.3c0.8,0,1.4,0.2,2,0.5c0.4,0.2,0.8,0.6,1,1c0.3,0.4,0.4,0.9,0.4,1.5c0,1.2-0.6,2-1.7,2.5
		c-0.3,0.1-0.7,0.2-1.2,0.3l3.6,4.7c0.1,0.2,0.3,0.3,0.4,0.4h-2.4c-0.1-0.2-0.1-0.3-0.2-0.5L53,214.3z M41.4,209.2
		c-1.2,0-2.1,0.4-2.6,1.3c-0.5,0.8-0.8,1.9-0.8,3.3c0,3.2,1.1,4.8,3.4,4.8c1.1,0,2-0.4,2.6-1.3c0.3-0.4,0.5-0.9,0.6-1.4
		c0.1-0.5,0.2-1.2,0.2-1.9C44.8,210.8,43.7,209.2,41.4,209.2z M41.4,208.3c1.6,0,2.9,0.4,3.8,1.3c1,1,1.5,2.4,1.5,4.2
		c0,1.8-0.5,3.2-1.5,4.2c-0.9,0.9-2.2,1.4-3.9,1.4c-1.7,0-3.1-0.5-4-1.5c-0.9-1-1.4-2.4-1.4-4.2c0-1.1,0.2-2.1,0.6-3
		C37.6,209.2,39.2,208.4,41.4,208.3z M27.6,213.8h1c0.5,0,1-0.1,1.3-0.3c0.3-0.2,0.5-0.5,0.7-0.8c0.2-0.4,0.3-0.8,0.3-1.2
		c0-0.7-0.2-1.2-0.6-1.6c-0.4-0.4-0.9-0.6-1.6-0.6h-1.1V213.8z M27.6,214.7v4.1c0,0.2,0,0.3,0.1,0.5h-2c0-0.2,0.1-0.3,0.1-0.5V209
		c0-0.2,0-0.4-0.1-0.5h3.5c0.8,0,1.6,0.2,2.2,0.5c0.9,0.5,1.3,1.4,1.3,2.5c0,1.2-0.5,2.1-1.6,2.7c-0.6,0.3-1.4,0.5-2.3,0.5H27.6z"/>
	<path class="st1" d="M161.4,166.6l3.7-10.6l3.8,10.6H161.4z M160.9,168.4h8.7l2.2,6.3c0.1,0.4,0.2,0.6,0.2,1h4.6
		c-0.3-0.5-0.4-0.6-0.6-1l-7.9-21.6c-0.1-0.3-0.1-0.5-0.2-0.8h-3.4c0,0.3-0.1,0.5-0.2,0.8l-7.6,21.6c-0.1,0.4-0.2,0.6-0.5,1h2.2
		c0-0.4,0-0.6,0.1-1L160.9,168.4z M141.9,174.2c2.4,1.3,4.1,1.8,6.5,1.8c2.1,0,3.9-0.5,5.2-1.4c1.8-1.3,2.8-3.5,2.8-5.7
		c0-1.5-0.4-2.8-1.3-3.9c-0.8-1.1-2.1-2-4.5-3.1c-3.9-1.8-4.8-2.7-4.8-4.6c0-2,1.6-3.5,3.9-3.5c1.6,0,3,0.5,4.9,1.9l0.7-2.5
		c-2-0.9-3.5-1.3-5.4-1.3c-4.6,0-7.7,2.6-7.7,6.5c0,2.8,1.5,4.7,5.5,6.6c1.9,0.9,2.9,1.4,3.4,1.8c1.2,0.8,1.7,1.9,1.7,3.2
		c0,2.4-1.8,4-4.5,4c-2,0-3.3-0.6-5.5-2.6L141.9,174.2z M127,166.6l3.7-10.6l3.8,10.6H127z M126.4,168.4h8.7l2.2,6.3
		c0.1,0.4,0.2,0.6,0.2,1h4.6c-0.3-0.5-0.4-0.6-0.6-1l-7.9-21.6c-0.1-0.3-0.1-0.5-0.2-0.8h-3.4c0,0.3-0.1,0.5-0.2,0.8l-7.6,21.6
		c-0.1,0.4-0.2,0.6-0.5,1h2.2c0-0.4,0-0.6,0.1-1L126.4,168.4z M121.2,153c-1.9-0.8-3.4-1.1-5.5-1.1c-7.6,0-12,4.3-12,11.9
		c0,7.9,4,12.2,11.4,12.2c2.4,0,3.9-0.4,6.1-1.4v-3.1c-2,1.9-3.4,2.5-5.5,2.5c-4.8,0-7.9-4-7.9-10.1c0-6.2,2.9-10,7.7-10
		c2.1,0,3.5,0.6,5.6,2.3V153z M77.7,166.6l3.7-10.6l3.8,10.6H77.7z M77.2,168.4h8.7l2.2,6.3c0.1,0.4,0.2,0.6,0.2,1h4.6
		c-0.3-0.5-0.4-0.6-0.6-1l-7.9-21.6c-0.1-0.3-0.1-0.5-0.2-0.8h-3.4c0,0.3-0.1,0.5-0.2,0.8L73,174.7c-0.1,0.4-0.2,0.6-0.5,1h2.2
		c0-0.4,0-0.6,0.1-1L77.2,168.4z M58.8,152.3v2.1c0.6-0.1,1-0.2,1.5-0.2h5.1v20.3c0,0.5,0,0.7-0.1,1.1h4.2c-0.1-0.4-0.1-0.7-0.1-1.1
		v-20.3h5.1c0.4,0,0.8,0,1.4,0.2v-2.1H58.8z M41.2,156.6l13,18.2c0.1,0.2,0.3,0.4,0.4,0.6l0.1,0.3h3.4c-0.1-0.4-0.2-0.5-0.2-1.1
		v-21.2c0-0.6,0-0.7,0.1-1.1H56c0.1,0.4,0.1,0.7,0.1,1.1V171l-12.8-17.9c-0.3-0.4-0.4-0.5-0.4-0.8h-3.7c0.1,0.5,0.1,0.7,0.1,1.1
		v21.1c0,0.4,0,0.7-0.1,1.1h2.1c-0.1-0.4-0.1-0.7-0.1-1.1V156.6z M22.9,166.6l3.7-10.6l3.8,10.6H22.9z M22.3,168.4H31l2.2,6.3
		c0.1,0.4,0.2,0.6,0.2,1H38c-0.3-0.5-0.4-0.6-0.6-1l-7.9-21.6c-0.1-0.3-0.1-0.5-0.2-0.8H26c0,0.3-0.1,0.5-0.2,0.8l-7.6,21.6
		c-0.1,0.4-0.2,0.6-0.5,1h2.2c0-0.4,0-0.6,0.1-1L22.3,168.4z M3.3,174.2c2.4,1.3,4.1,1.8,6.5,1.8c2.1,0,3.9-0.5,5.2-1.4
		c1.8-1.3,2.8-3.5,2.8-5.7c0-1.5-0.4-2.8-1.3-3.9c-0.8-1.1-2.1-2-4.5-3.1c-3.9-1.8-4.8-2.7-4.8-4.6c0-2,1.6-3.5,3.9-3.5
		c1.6,0,3,0.5,4.9,1.9l0.7-2.5c-2-0.9-3.5-1.3-5.4-1.3c-4.6,0-7.7,2.6-7.7,6.5c0,2.8,1.5,4.7,5.5,6.6c1.9,0.9,2.9,1.4,3.4,1.8
		c1.2,0.8,1.7,1.9,1.7,3.2c0,2.4-1.8,4-4.5,4c-2,0-3.3-0.6-5.5-2.6L3.3,174.2z"/>
	<path class="st1" d="M88.5,12.7L88.5,12.7c2.7,0,4.9,2.2,4.9,4.9v36.7c0,2.7-2.2,4.9-4.9,4.9c-2.7,0-4.9-2.2-4.9-4.9V17.6
		C83.6,14.9,85.8,12.7,88.5,12.7"/>
	<path class="st1" d="M88.5,141L88.5,141c2.7,0,4.9-2.2,4.9-4.9V99.4c0-2.7-2.2-4.9-4.9-4.9c-2.7,0-4.9,2.2-4.9,4.9v36.7
		C83.6,138.8,85.8,141,88.5,141"/>
	<path class="st1" d="M154.8,76.9L154.8,76.9c0-2.7-2.2-4.9-4.9-4.9h-36.7c-2.7,0-4.9,2.2-4.9,4.9c0,2.7,2.2,4.9,4.9,4.9h36.7
		C152.6,81.8,154.8,79.6,154.8,76.9"/>
	<path class="st1" d="M22.1,76.9L22.1,76.9c0-2.7,2.2-4.9,4.9-4.9h36.7c2.7,0,4.9,2.2,4.9,4.9c0,2.7-2.2,4.9-4.9,4.9H27.1
		C24.4,81.8,22.1,79.6,22.1,76.9"/>
	<path class="st1" d="M44.6,64.2L44.6,64.2c0-2.1,1.7-3.8,3.8-3.8h23.5V37.7c0-2.1,1.7-3.8,3.8-3.8c2.1,0,3.8,1.7,3.8,3.8v26.5
		c0,0.3,0,0.7-0.1,1l0,0.1l0,0l0,0.1c-0.5,1.6-1.9,2.7-3.6,2.7H48.4C46.3,68,44.6,66.3,44.6,64.2"/>
	<path class="st1" d="M132.3,64.2L132.3,64.2c0-2.1-1.7-3.8-3.8-3.8H105V37.7c0-2.1-1.7-3.8-3.8-3.8s-3.8,1.7-3.8,3.8v26.5
		c0,0.3,0,0.7,0.1,1l0,0.1l0,0l0,0.1c0.5,1.6,1.9,2.7,3.6,2.7h27.3C130.6,68,132.3,66.3,132.3,64.2"/>
	<path class="st1" d="M44.6,89.7L44.6,89.7c0,2.1,1.7,3.8,3.8,3.8h23.5v22.7c0,2.1,1.7,3.8,3.8,3.8c2.1,0,3.8-1.7,3.8-3.8V89.8
		c0-0.3,0-0.7-0.1-1l0-0.1l0,0l0-0.1c-0.5-1.6-1.9-2.7-3.6-2.7H48.4C46.3,86,44.6,87.7,44.6,89.7"/>
	<path class="st1" d="M132.3,89.7L132.3,89.7c0,2.1-1.7,3.8-3.8,3.8H105v22.7c0,2.1-1.7,3.8-3.8,3.8s-3.8-1.7-3.8-3.8V89.8
		c0-0.3,0-0.7,0.1-1l0-0.1l0,0l0-0.1c0.5-1.6,1.9-2.7,3.6-2.7h27.3C130.6,86,132.3,87.7,132.3,89.7"/>
	<path class="st0" d="M170.2,192.1h3.9l-2-5.6L170.2,192.1z M169.9,193l-1.2,3.4c-0.1,0.2-0.1,0.3-0.1,0.5h-1.2
		c0.1-0.2,0.2-0.4,0.3-0.5l4-11.4c0.1-0.2,0.1-0.3,0.1-0.5h1.8c0,0.1,0,0.3,0.1,0.4l4.2,11.4c0.1,0.1,0.2,0.3,0.3,0.5h-2.4
		c0-0.2,0-0.3-0.1-0.5l-1.2-3.4H169.9z M161.1,184.5h2.2c0,0.1-0.1,0.3-0.1,0.6v11.2c0,0.3,0,0.5,0.1,0.6h-2.2
		c0.1-0.2,0.1-0.4,0.1-0.6v-11.2C161.2,184.9,161.1,184.7,161.1,184.5z M148.2,195.8h1.7c1.1,0,2-0.3,2.6-1c0.5-0.5,0.8-1,1-1.6
		c0.3-0.8,0.5-1.7,0.5-2.7c0-1.9-0.6-3.3-1.8-4.2c-0.7-0.5-1.6-0.8-2.6-0.8h-1.3V195.8z M146,184.5h3.8c1.4,0,2.6,0.3,3.6,0.9
		c0.9,0.5,1.6,1.2,2,2.1c0.5,0.9,0.7,1.9,0.7,3.1c0,1.7-0.5,3.1-1.4,4.2c-1.1,1.4-2.6,2-4.4,2H146c0.1-0.2,0.1-0.4,0.1-0.6v-11.2
		C146.1,184.9,146.1,184.7,146,184.5z M135.4,190.4h1c0.6,0,1-0.1,1.4-0.4c0.7-0.5,1-1.2,1-2.1c0-0.8-0.3-1.5-0.8-2
		c-0.4-0.4-1-0.5-1.7-0.5h-0.9V190.4z M135.4,191.1v5.1c0,0.2,0,0.4,0.1,0.6h-2.2c0.1-0.2,0.1-0.4,0.1-0.6v-11.2
		c0-0.2,0-0.4-0.1-0.6h3.8c0.9,0,1.6,0.2,2.2,0.5c0.5,0.3,0.9,0.7,1.2,1.1c0.3,0.5,0.4,1,0.4,1.7c0,1.4-0.7,2.3-2,2.8
		c-0.4,0.1-0.8,0.3-1.4,0.4l4.1,5.3c0.2,0.2,0.3,0.4,0.5,0.5h-2.7c-0.1-0.2-0.1-0.4-0.3-0.5L135.4,191.1z M121.3,183.8l1.3-2.9h1.6
		l-1.9,2.9H121.3z M122.4,185.3c-1.4,0-2.4,0.5-3,1.5c-0.6,0.9-0.9,2.2-0.9,3.8c0,3.7,1.3,5.5,3.9,5.5c1.3,0,2.3-0.5,3-1.5
		c0.3-0.5,0.5-1,0.7-1.6c0.1-0.6,0.2-1.3,0.2-2.2C126.3,187.1,125,185.3,122.4,185.3z M122.4,184.3c1.8,0,3.3,0.5,4.3,1.5
		c1.2,1.1,1.8,2.7,1.8,4.8c0,2.1-0.6,3.7-1.7,4.8c-1.1,1-2.5,1.6-4.4,1.6c-2,0-3.5-0.6-4.5-1.7c-1-1.1-1.6-2.7-1.6-4.8
		c0-1.3,0.2-2.4,0.7-3.4C118,185.3,119.8,184.4,122.4,184.3z M112.7,184.9v1.7c-0.5-0.4-1-0.8-1.5-0.9c-0.4-0.2-0.9-0.3-1.5-0.3
		c-1.3,0-2.4,0.5-3.1,1.5c-0.7,1-1,2.2-1,3.8c0,1.6,0.4,2.9,1.2,3.9c0.8,1,1.8,1.4,3,1.4c0.6,0,1-0.1,1.5-0.3c0.4-0.2,0.9-0.5,1.4-1
		v1.6c-0.6,0.3-1.1,0.5-1.6,0.6c-0.5,0.1-1,0.2-1.6,0.2c-1.9,0-3.4-0.5-4.4-1.6c-1.1-1.1-1.6-2.8-1.6-4.9c0-1.3,0.2-2.4,0.7-3.3
		c1-2,2.9-3,5.6-3C110.8,184.3,111.8,184.5,112.7,184.9z M96.3,184.5h2.2c0,0.1-0.1,0.3-0.1,0.6v11.2c0,0.3,0,0.5,0.1,0.6h-2.2
		c0.1-0.2,0.1-0.4,0.1-0.6v-11.2C96.4,184.9,96.3,184.7,96.3,184.5z M85.6,190.4h1c0.6,0,1-0.1,1.4-0.4c0.7-0.5,1-1.2,1-2.1
		c0-0.8-0.3-1.5-0.8-2c-0.4-0.4-1-0.5-1.7-0.5h-0.9V190.4z M85.6,191.1v5.1c0,0.2,0,0.4,0.1,0.6h-2.2c0.1-0.2,0.1-0.4,0.1-0.6v-11.2
		c0-0.2,0-0.4-0.1-0.6h3.8c0.9,0,1.6,0.2,2.2,0.5c0.5,0.3,0.9,0.7,1.2,1.1c0.3,0.5,0.4,1,0.4,1.7c0,1.4-0.7,2.3-2,2.8
		c-0.4,0.1-0.8,0.3-1.4,0.4l4.1,5.3c0.2,0.2,0.3,0.4,0.5,0.5h-2.7c-0.1-0.2-0.1-0.4-0.3-0.5L85.6,191.1z M72.1,184.5h6.4v1
		c-0.2-0.1-0.4-0.1-0.6-0.1h-3.7v4.7h3.6c0.3,0,0.5,0,0.7-0.1v1c-0.2,0-0.4-0.1-0.7-0.1h-3.6v4.9h3.6c0.2,0,0.4,0,0.7-0.1v1.1h-6.4
		c0-0.2,0.1-0.4,0.1-0.6v-11.2C72.1,184.9,72.1,184.7,72.1,184.5z M59.8,196.1l0.4-1.5c0.3,0.3,0.6,0.5,0.8,0.7
		c0.7,0.5,1.4,0.7,2.1,0.7c0.8,0,1.4-0.2,1.8-0.7c0.4-0.4,0.6-0.9,0.6-1.5c0-0.7-0.3-1.2-0.8-1.6c-0.3-0.2-0.9-0.5-1.9-1
		c-1-0.5-1.8-1-2.2-1.5c-0.5-0.6-0.8-1.2-0.8-2c0-0.7,0.2-1.3,0.6-1.8c0.7-1,1.9-1.6,3.5-1.6c0.9,0,1.9,0.2,2.9,0.7l-0.4,1.3
		c-0.9-0.7-1.8-1-2.6-1c-0.6,0-1.1,0.2-1.5,0.6c-0.3,0.3-0.5,0.8-0.5,1.2c0,0.5,0.2,0.9,0.5,1.2c0.3,0.3,1,0.7,2.1,1.2
		c1.1,0.5,1.9,1,2.3,1.5c0.5,0.6,0.8,1.4,0.8,2.2c0,0.7-0.2,1.4-0.6,2c-0.7,1.2-2,1.8-3.7,1.8c-0.6,0-1.2-0.1-1.7-0.2
		C61,196.7,60.5,196.4,59.8,196.1z M52.9,184.5h2.2c0,0.1-0.1,0.3-0.1,0.6v11.2c0,0.3,0,0.5,0.1,0.6h-2.2c0.1-0.2,0.1-0.4,0.1-0.6
		v-11.2C53,184.9,53,184.7,52.9,184.5z M36.5,187.3l-1.4,9c0,0,0,0.1,0,0.1c0,0,0,0.2,0,0.5H34c0.1-0.3,0.1-0.5,0.2-0.6l1.8-11.2
		c0-0.1,0-0.1,0-0.2c0-0.1,0-0.2,0-0.4h1.9c0,0.2,0,0.3,0.1,0.5l3.3,9.6l3.3-9.6c0-0.1,0.1-0.2,0.1-0.3c0,0,0-0.1,0-0.1h1.9
		c0,0.1,0,0.2,0,0.3c0,0.1,0,0.1,0,0.2l1.6,11.4c0,0.1,0.1,0.3,0.1,0.5H46c0-0.1,0-0.2,0-0.3c0-0.1,0-0.1,0-0.2l-1.3-9.2l-3.1,9.2
		c-0.1,0.2-0.1,0.3-0.1,0.4c0,0,0,0.1,0,0.1h-1.7c0,0,0-0.1,0-0.1c0-0.1,0-0.2-0.1-0.4L36.5,187.3z M18.4,184.5h6.4v1
		c-0.2-0.1-0.4-0.1-0.6-0.1h-3.7v4.7h3.6c0.3,0,0.5,0,0.7-0.1v1c-0.2,0-0.4-0.1-0.7-0.1h-3.6v4.9h3.6c0.2,0,0.4,0,0.7-0.1v1.1h-6.4
		c0-0.2,0.1-0.4,0.1-0.6v-11.2C18.5,184.9,18.5,184.7,18.4,184.5z M5.6,195.8h1.7c1.1,0,2-0.3,2.6-1c0.5-0.5,0.8-1,1-1.6
		c0.3-0.8,0.5-1.7,0.5-2.7c0-1.9-0.6-3.3-1.8-4.2c-0.7-0.5-1.6-0.8-2.6-0.8H5.6V195.8z M3.5,184.5h3.8c1.4,0,2.6,0.3,3.6,0.9
		c0.9,0.5,1.6,1.2,2,2.1c0.5,0.9,0.7,1.9,0.7,3.1c0,1.7-0.5,3.1-1.4,4.2c-1.1,1.4-2.6,2-4.4,2H3.5c0.1-0.2,0.1-0.4,0.1-0.6v-11.2
		C3.6,184.9,3.5,184.7,3.5,184.5z"/>
	<rect x="2.6" y="202.3" class="st1" width="175.5" height="1.9"/>
</g>
<g>
</g>
<g>
</g>
<g>
</g>
<g>
</g>
<g>
</g>
<g>
</g>
<g>
</g>
<g>
</g>
<g>
</g>
<g>
</g>
<g>
</g>
<g>
</g>
<g>
</g>
<g>
</g>
<g>
</g>
</svg>
